<svg xmlns="http://www.w3.org/2000/svg" class="ionicon" viewBox="0 0 512 512" fill="#fff">
<title>LeetCode icon</title>
<path d="M340.79 395.93l-57.39 55.56c-9.94 9.94-23.71 14.1-38.89 14.1s-28.96-4.16-38.89-14.1l-92.44-93.06c-9.94-9.94-14.94-24.48-14.94-39.68s5-29.74 14.94-39.68l92.15-93.35c9.94-9.94 23.92-13.73 39.09-13.73s28.96 4.16 38.89 14.1l57.39 55.56c10.92 10.92 28.98 10.54 40.34-.81 11.36-11.36 11.75-29.47.81-40.34l-55.79-56.33c-12.12-12.3-28.85-19.97-47.04-22.64l47.47-48.2c9.9-9.9 10.56-26.28.8-36.95-9.76-10.67-26.15-11.14-36.95-.8l-196.3 196.3c-19.05 19.22-29.04 45.74-29.04 75.03s9.99 55.81 29.04 74.87l92.57 92.93c19.05 19.06 45.41 28.26 74.7 28.26s55.65-9.92 74.7-29.04l55.79-56.33c10.92-10.92 10.54-28.98-.81-40.34s-29.47-11.75-40.34-.81zM428.88 334.27H213.03c-14.05 0-25.4 12.09-25.4 26.91s11.35 26.91 25.4 26.91h215.85c14.05 0 25.4-12.09 25.4-26.91s-11.35-26.91-25.4-26.91z"/>
</svg>
