<svg xmlns="http://www.w3.org/2000/svg" class="ionicon" viewBox="0 0 512 512" fill="#fff">
<path d="M437.33,32H74.67C50.14,32,32,50.14,32,74.67V437.33C32,461.86,50.14,480,74.67,480H437.33C461.86,480,480,461.86,480,437.33V74.67C480,50.14,461.86,32,437.33,32ZM197.33,394.67H125.33V202.67h72ZM161.33,170.67a36,36,0,1,1,36-36A36,36,0,0,1,161.33,170.67ZM394.67,394.67H322.67V298.67c0-23.53-8.42-39.47-29.47-39.47-16.07,0-25.63,10.8-29.83,21.24-1.54,3.73-1.93,8.93-1.93,14.16v100h-72V202.67h72v25.92a81.66,81.66,0,0,1,65.92-33.92c46.67,0,81.31,30.64,81.31,96.41Z" />
</svg>
